<svg xmlns="http://www.w3.org/2000/svg" width="34" height="34" viewBox="0 0 34 34" class="c-brand-icon">
    <path fill-rule="evenodd" clip-rule="evenodd" d="M23.68188,14.95467L31.4153,3.71933
	c0.43774-0.72957,0-1.60505-0.87548-1.60505h-8.17115c-0.43774,0-0.87548,0.29183-1.16731,0.72957l-2.91827,4.23149
	c0,0,0,0.14591,0,0.29183l4.96106,7.44159C23.24414,15.10058,23.53597,15.10058,23.68188,14.95467" />
    <path fill-rule="evenodd" clip-rule="evenodd" d="M31.26938,31.00515l-7.73342-11.67308
	c-0.14591-0.14591-0.29182-0.14591-0.43774,0l-4.96106,7.14976c0,0,0,0.14591,0,0.29183l3.50193,5.10697
	c0.29182,0.43774,0.72957,0.58366,1.16731,0.58366h7.73342C31.26938,32.46429,31.85303,31.5888,31.26938,31.00515" />
    <path fill-rule="evenodd" clip-rule="evenodd" d="M21.63909,16.26789L12.73837,2.84385
	c-0.29183-0.43774-0.72957-0.72957-1.16731-0.72957H3.254c-0.72957,0-1.31322,0.87548-0.87548,1.60505l9.04663,13.42404
	L2.2326,30.85924c-0.43774,0.72957,0,1.60505,0.87548,1.60505h7.73341c0.43774,0,0.87548-0.29183,1.16731-0.58366l9.63029-14.00769
	C21.93092,17.4352,21.93092,16.85155,21.63909,16.26789" />
</svg>
