<svg id="Layer_2" data-name="Layer 2" xmlns="http://www.w3.org/2000/svg" viewBox="0 0 302.75 302.75">
    <defs>
        <style>
            .cls-1 {
            fill: url(#linear-gradient);
            }

            .cls-2 {
            fill: #fff;
            }
        </style>
        <linearGradient id="linear-gradient" x1="27.05" y1="27.05" x2="275.7" y2="275.7" gradientUnits="userSpaceOnUse">
            <stop offset="0" stop-color="#3650dc"/>
            <stop offset=".02" stop-color="#354fd6"/>
            <stop offset=".1" stop-color="#324bc4"/>
            <stop offset=".19" stop-color="#3049b8"/>
            <stop offset=".28" stop-color="#3049b5"/>
            <stop offset=".67" stop-color="#182456"/>
            <stop offset=".89" stop-color="#0b0f1e"/>
            <stop offset="1" stop-color="#0b0b0b"/>
        </linearGradient>
    </defs>
    <g id="Translate_icons">
        <rect class="cls-1" width="302.75" height="302.75" rx="92.36" ry="92.36"/>
        <g class="cls-2" transform="scale(5) translate(13 13)">
            <path fill-rule="evenodd" clip-rule="evenodd" d="M23.68188,14.95467L31.4153,3.71933
	c0.43774-0.72957,0-1.60505-0.87548-1.60505h-8.17115c-0.43774,0-0.87548,0.29183-1.16731,0.72957l-2.91827,4.23149
	c0,0,0,0.14591,0,0.29183l4.96106,7.44159C23.24414,15.10058,23.53597,15.10058,23.68188,14.95467" />
            <path fill-rule="evenodd" clip-rule="evenodd" d="M31.26938,31.00515l-7.73342-11.67308
	c-0.14591-0.14591-0.29182-0.14591-0.43774,0l-4.96106,7.14976c0,0,0,0.14591,0,0.29183l3.50193,5.10697
	c0.29182,0.43774,0.72957,0.58366,1.16731,0.58366h7.73342C31.26938,32.46429,31.85303,31.5888,31.26938,31.00515" />
            <path fill-rule="evenodd" clip-rule="evenodd" d="M21.63909,16.26789L12.73837,2.84385
	c-0.29183-0.43774-0.72957-0.72957-1.16731-0.72957H3.254c-0.72957,0-1.31322,0.87548-0.87548,1.60505l9.04663,13.42404
	L2.2326,30.85924c-0.43774,0.72957,0,1.60505,0.87548,1.60505h7.73341c0.43774,0,0.87548-0.29183,1.16731-0.58366l9.63029-14.00769
	C21.93092,17.4352,21.93092,16.85155,21.63909,16.26789" />
        </g>
    </g>
</svg>
